<mxfile host="65bd71144e">
    <diagram id="owHJSVEGFl45Q3MHtism" name="Page-1">
        <mxGraphModel dx="867" dy="601" grid="1" gridSize="10" guides="1" tooltips="1" connect="1" arrows="1" fold="1" page="1" pageScale="1" pageWidth="850" pageHeight="1100" math="0" shadow="0">
            <root>
                <mxCell id="0"/>
                <mxCell id="1" parent="0"/>
                <mxCell id="8" value="Vertical Container" style="swimlane;whiteSpace=wrap;html=1;" vertex="1" parent="1">
                    <mxGeometry x="225" y="130" width="335" height="250" as="geometry"/>
                </mxCell>
                <mxCell id="7" value="Marketplace" style="shape=process;whiteSpace=wrap;html=1;backgroundOutline=1;" vertex="1" parent="8">
                    <mxGeometry x="15" y="60" width="120" height="60" as="geometry"/>
                </mxCell>
            </root>
        </mxGraphModel>
    </diagram>
</mxfile>